<svg width="379" height="79" viewBox="0 0 379 79" fill="none" xmlns="http://www.w3.org/2000/svg">
<path d="M7.504 16.456H18.704V46.92C18.704 51.2293 19.344 54.5573 20.624 56.904C21.904 59.208 24.1867 60.36 27.472 60.36C33.744 60.36 36.88 55.8587 36.88 46.856C36.88 43.6987 36.2613 39.7733 35.024 35.08C33.8293 30.344 33.232 26.9307 33.232 24.84C33.232 20.7867 34.1067 17.6293 35.856 15.368C37.648 13.1067 39.824 11.976 42.384 11.976C44.9867 11.976 46.9493 12.6587 48.272 14.024C49.6373 15.3893 50.32 17.2667 50.32 19.656C50.32 22.0453 49.7227 23.7307 48.528 24.712C47.376 25.6933 46.352 26.184 45.456 26.184C44.6027 26.184 43.856 25.992 43.216 25.608C42.576 25.224 42.256 24.7973 42.256 24.328C42.256 23.8587 42.3627 23.624 42.576 23.624C42.7893 23.624 42.9387 23.688 43.024 23.816C43.152 23.944 43.2587 24.0933 43.344 24.264C43.6427 24.6907 44.3253 24.904 45.392 24.904C46.5013 24.904 47.376 24.456 48.016 23.56C48.6987 22.6213 49.04 21.448 49.04 20.04C49.04 15.5173 46.9067 13.256 42.64 13.256C40.3787 13.256 38.4587 14.2373 36.88 16.2C35.3013 18.1627 34.512 21.064 34.512 24.904C34.512 27.08 35.1093 30.5147 36.304 35.208C37.5413 39.9013 38.16 43.8907 38.16 47.176C38.16 56.776 34.2133 61.576 26.32 61.576C22.864 61.576 19.792 60.7013 17.104 58.952C15.6107 58.0133 14.416 56.5627 13.52 54.6C12.6667 52.6373 12.24 50.2693 12.24 47.496V17.736H7.44C5.43467 17.736 3.94133 18.184 2.96 19.08C1.97867 19.9333 1.488 20.9573 1.488 22.152C1.488 23.3467 1.76533 24.328 2.32 25.096C2.91733 25.8213 3.728 26.184 4.752 26.184C5.776 26.184 6.52267 25.9493 6.992 25.48C7.46133 25.0107 7.824 24.5627 8.08 24.136C8.336 23.6667 8.592 23.432 8.848 23.432C9.104 23.432 9.232 23.752 9.232 24.392C9.232 25.032 8.74133 25.7147 7.76 26.44C6.82133 27.1227 5.712 27.464 4.432 27.464C3.152 27.464 2.128 26.9733 1.36 25.992C0.592 25.0107 0.208 23.7947 0.208 22.344C0.208 20.8507 0.826667 19.5067 2.064 18.312C3.344 17.0747 5.15733 16.456 7.504 16.456ZM55.7745 40.904C55.7745 41.928 56.0305 42.9307 56.5425 43.912C57.0972 44.8507 57.8438 45.32 58.7825 45.32C59.7638 45.32 60.5105 45.2133 61.0225 45C61.5772 44.744 61.8972 44.616 61.9825 44.616C62.2385 44.616 62.3665 44.7867 62.3665 45.128C62.3665 45.4693 62.1105 45.8107 61.5985 46.152C61.1292 46.4507 60.2545 46.6 58.9745 46.6C57.7372 46.6 56.7132 46.088 55.9025 45.064C55.0918 44.04 54.6225 42.9093 54.4945 41.672V61H48.1585V31.368H54.4945V40.712C54.6652 38.024 55.9878 35.6987 58.4625 33.736C60.9372 31.7307 63.5185 30.728 66.2065 30.728C69.0225 30.728 71.0918 31.7093 72.4145 33.672C73.7798 35.592 74.4625 39.7093 74.4625 46.024V61H68.0625V47.688C68.0625 42.6533 67.7852 38.8987 67.2305 36.424C66.7185 33.9493 65.7158 32.712 64.2225 32.712C62.3452 32.712 60.4678 33.5867 58.5905 35.336C56.7132 37.0853 55.7745 38.9413 55.7745 40.904ZM88.746 31.432V61.064H82.346V31.432H88.746ZM83.114 25.416C82.474 24.7333 82.154 23.9227 82.154 22.984C82.154 22.0453 82.474 21.256 83.114 20.616C83.7967 19.9333 84.6073 19.592 85.546 19.592C86.4847 19.592 87.274 19.9333 87.914 20.616C88.5967 21.256 88.938 22.0453 88.938 22.984C88.938 23.9227 88.5967 24.7333 87.914 25.416C87.274 26.056 86.4847 26.376 85.546 26.376C84.6073 26.376 83.7967 26.056 83.114 25.416ZM117.261 35.72L117.517 37.64C117.517 37.9813 117.367 38.152 117.069 38.152C116.343 38.152 115.981 37.2347 115.981 35.4C115.981 34.4613 116.386 33.5653 117.197 32.712C118.007 31.8587 119.095 31.432 120.461 31.432C121.869 31.432 123.085 32.1147 124.109 33.48C125.133 34.8453 125.645 36.68 125.645 38.984C125.645 41.2453 125.367 43.5707 124.812 45.96C124.301 48.3493 123.511 50.76 122.445 53.192C121.421 55.5813 119.949 57.5867 118.029 59.208C116.151 60.8293 114.039 61.64 111.693 61.64C110.114 61.64 108.77 61.2773 107.661 60.552C106.594 59.784 105.805 58.76 105.293 57.48C104.354 55.1333 103.885 52.5733 103.885 49.8L104.077 42.76C104.077 37.9387 103.437 34.9307 102.157 33.736C101.517 33.1387 100.706 32.84 99.7245 32.84C98.7432 32.84 97.9112 33.096 97.2285 33.608C96.5458 34.12 96.0552 34.8027 95.7565 35.656C95.2018 37.2347 94.9245 38.6853 94.9245 40.008C94.9245 41.3307 95.2018 42.4613 95.7565 43.4C96.3112 44.3387 97.2712 44.808 98.6365 44.808C99.2765 44.808 99.8738 44.6587 100.429 44.36C100.983 44.0613 101.282 43.912 101.325 43.912C101.623 43.912 101.773 44.168 101.773 44.68C101.773 45.1493 101.346 45.512 100.493 45.768C99.6818 45.9813 98.9138 46.088 98.1885 46.088C96.8232 46.088 95.7138 45.4907 94.8605 44.296C94.0498 43.1013 93.6445 41.8 93.6445 40.392C93.6445 37.704 94.4125 35.4 95.9485 33.48C97.4845 31.5173 99.8525 30.536 103.053 30.536C105.911 30.536 107.831 31.7307 108.812 34.12C109.666 36.0827 110.093 38.664 110.093 41.864L109.901 50.824C109.901 53.8107 110.093 56.1573 110.477 57.864C110.903 59.528 111.714 60.36 112.909 60.36C114.743 60.36 116.557 59.272 118.349 57.096C120.183 54.92 121.634 52.2533 122.701 49.096C123.81 45.9387 124.365 43.0587 124.365 40.456C124.365 37.8533 123.938 35.912 123.085 34.632C122.231 33.352 121.186 32.712 119.949 32.712C119.266 32.712 118.647 32.968 118.093 33.48C117.538 33.992 117.261 34.7387 117.261 35.72ZM140.415 58.76C141.012 59.1867 141.759 59.5493 142.655 59.848C143.593 60.1467 144.724 60.296 146.047 60.296C147.369 60.296 148.777 59.9973 150.271 59.4C151.764 58.76 152.809 57.8213 153.407 56.584H155.263C153.599 59.9547 150.1 61.64 144.767 61.64C140.671 61.64 137.193 60.1893 134.335 57.288C131.519 54.344 130.111 50.6747 130.111 46.28C130.111 41.8427 131.604 38.152 134.591 35.208C137.577 32.2213 140.82 30.728 144.319 30.728C147.86 30.728 150.633 31.7093 152.639 33.672C154.687 35.592 155.711 37.8747 155.711 40.52C155.711 43.1653 154.623 45.512 152.447 47.56C150.271 49.608 147.412 50.632 143.871 50.632C140.329 50.632 137.855 49.1173 136.447 46.088C136.489 46.3867 136.532 47.0267 136.575 48.008C136.66 48.9893 136.724 49.7573 136.767 50.312C136.809 50.8667 136.916 51.6347 137.087 52.616C137.3 53.5973 137.513 54.3867 137.727 54.984C137.983 55.5813 138.345 56.264 138.815 57.032C139.284 57.7573 139.817 58.3333 140.415 58.76ZM150.207 40.2C150.207 34.696 148.116 31.944 143.935 31.944C141.887 31.944 140.201 32.9467 138.879 34.952C137.599 36.9147 136.873 39.304 136.703 42.12C137.215 40.9253 137.983 39.9653 139.007 39.24C140.073 38.5147 141.161 38.152 142.271 38.152C143.423 38.152 143.999 38.3653 143.999 38.792C143.999 39.176 143.743 39.368 143.231 39.368C141.268 39.496 139.817 39.9867 138.879 40.84C137.983 41.6933 137.535 42.8453 137.535 44.296C137.535 45.7467 138.047 46.984 139.071 48.008C140.137 48.9893 141.375 49.48 142.783 49.48C145.087 49.48 146.9 48.5627 148.223 46.728C149.545 44.8507 150.207 42.6747 150.207 40.2ZM182.838 33.8C182.838 34.2693 182.646 34.632 182.262 34.888C181.921 35.144 181.473 35.272 180.918 35.272C180.363 35.272 179.915 35.1227 179.574 34.824C179.233 34.4827 178.998 34.12 178.87 33.736C178.785 33.352 178.529 33.0107 178.102 32.712C177.675 32.3707 177.078 32.2 176.31 32.2C174.433 32.2 172.683 33.5653 171.062 36.296C169.441 39.0267 168.502 42.12 168.246 45.576V61H161.846V31.368H168.246V38.92C169.27 36.4453 170.593 34.3973 172.214 32.776C173.878 31.112 175.542 30.28 177.206 30.28C178.87 30.28 180.214 30.5787 181.238 31.176C182.305 31.7307 182.838 32.6053 182.838 33.8ZM196.518 61.64C193.659 61.64 190.95 60.936 188.39 59.528C185.83 58.0773 184.549 56.072 184.549 53.512C184.549 52.8293 184.72 52.1893 185.062 51.592C185.403 50.9947 185.83 50.696 186.342 50.696C186.896 50.696 187.323 50.8667 187.622 51.208C187.92 51.5493 188.07 51.8907 188.07 52.232C188.07 52.5733 187.856 53.064 187.43 53.704C187.003 54.3013 186.79 54.792 186.79 55.176C186.79 56.4987 187.92 57.6933 190.182 58.76C192.443 59.8267 194.598 60.36 196.646 60.36C198.736 60.36 200.742 59.6773 202.662 58.312C204.624 56.9467 205.606 55.2187 205.606 53.128C205.606 51.208 204.539 49.864 202.406 49.096C201.04 48.5413 198.715 48.008 195.43 47.496C192.144 46.9413 189.584 46.0453 187.75 44.808C185.915 43.5707 184.998 41.6507 184.998 39.048C184.998 37.4693 185.403 36.104 186.214 34.952C187.024 33.8 188.07 32.9253 189.35 32.328C191.867 31.176 194.342 30.6 196.774 30.6C199.248 30.6 201.424 31.0267 203.302 31.88C205.222 32.7333 206.48 33.8 207.078 35.08C207.334 35.6773 207.462 36.1893 207.462 36.616C207.462 37.64 206.928 38.152 205.862 38.152C204.71 38.152 204.112 37.448 204.07 36.04C203.984 34.4613 203.366 33.3733 202.214 32.776C200.763 32.1787 198.928 31.88 196.71 31.88C194.534 31.88 192.528 32.4133 190.694 33.48C188.859 34.504 187.942 35.8267 187.942 37.448C187.942 39.4107 189.712 40.52 193.254 40.776C196.795 40.9893 200.08 41.608 203.11 42.632C204.646 43.144 205.904 44.1253 206.886 45.576C207.91 46.984 208.422 48.712 208.422 50.76C208.422 52.7653 208.059 54.472 207.334 55.88C206.608 57.288 205.648 58.3973 204.454 59.208C202.064 60.8293 199.419 61.64 196.518 61.64ZM222.852 58.76C223.449 59.1867 224.196 59.5493 225.092 59.848C226.031 60.1467 227.161 60.296 228.484 60.296C229.807 60.296 231.215 59.9973 232.708 59.4C234.201 58.76 235.247 57.8213 235.844 56.584H237.7C236.036 59.9547 232.537 61.64 227.204 61.64C223.108 61.64 219.631 60.1893 216.772 57.288C213.956 54.344 212.548 50.6747 212.548 46.28C212.548 41.8427 214.041 38.152 217.028 35.208C220.015 32.2213 223.257 30.728 226.756 30.728C230.297 30.728 233.071 31.7093 235.076 33.672C237.124 35.592 238.148 37.8747 238.148 40.52C238.148 43.1653 237.06 45.512 234.884 47.56C232.708 49.608 229.849 50.632 226.308 50.632C222.767 50.632 220.292 49.1173 218.884 46.088C218.927 46.3867 218.969 47.0267 219.012 48.008C219.097 48.9893 219.161 49.7573 219.204 50.312C219.247 50.8667 219.353 51.6347 219.524 52.616C219.737 53.5973 219.951 54.3867 220.164 54.984C220.42 55.5813 220.783 56.264 221.252 57.032C221.721 57.7573 222.255 58.3333 222.852 58.76ZM232.644 40.2C232.644 34.696 230.553 31.944 226.372 31.944C224.324 31.944 222.639 32.9467 221.316 34.952C220.036 36.9147 219.311 39.304 219.14 42.12C219.652 40.9253 220.42 39.9653 221.444 39.24C222.511 38.5147 223.599 38.152 224.708 38.152C225.86 38.152 226.436 38.3653 226.436 38.792C226.436 39.176 226.18 39.368 225.668 39.368C223.705 39.496 222.255 39.9867 221.316 40.84C220.42 41.6933 219.972 42.8453 219.972 44.296C219.972 45.7467 220.484 46.984 221.508 48.008C222.575 48.9893 223.812 49.48 225.22 49.48C227.524 49.48 229.337 48.5627 230.66 46.728C231.983 44.8507 232.644 42.6747 232.644 40.2ZM242.108 61C241.766 61 241.446 60.872 241.148 60.616C240.892 60.3173 240.764 59.9973 240.764 59.656C240.764 59.4427 240.785 59.2507 240.828 59.08L255.868 17.992C255.996 17.5227 256.252 17.1173 256.635 16.776C257.062 16.392 257.638 16.2 258.364 16.2H267.836C268.561 16.2 269.116 16.392 269.5 16.776C269.926 17.1173 270.204 17.5227 270.332 17.992L285.308 59.08C285.393 59.2507 285.436 59.4427 285.436 59.656C285.436 59.9973 285.286 60.3173 284.988 60.616C284.732 60.872 284.412 61 284.028 61H276.156C275.516 61 275.025 60.8507 274.684 60.552C274.385 60.2107 274.193 59.912 274.108 59.656L271.612 53.128H254.524L252.092 59.656C252.006 59.912 251.814 60.2107 251.516 60.552C251.217 60.8507 250.705 61 249.98 61H242.108ZM257.148 43.912H269.052L263.036 27.016L257.148 43.912ZM308.039 61.64C303.985 61.64 300.487 60.9787 297.543 59.656C294.641 58.2907 292.38 56.328 290.759 53.768C289.18 51.1653 288.305 48.008 288.135 44.296C288.092 42.4613 288.071 40.52 288.071 38.472C288.071 36.3813 288.092 34.3973 288.135 32.52C288.305 28.8933 289.201 25.8213 290.823 23.304C292.444 20.7867 294.727 18.8667 297.671 17.544C300.615 16.2213 304.071 15.56 308.039 15.56C311.239 15.56 314.076 15.9653 316.551 16.776C319.025 17.544 321.095 18.5893 322.759 19.912C324.465 21.2347 325.745 22.6853 326.599 24.264C327.495 25.8427 327.964 27.4 328.007 28.936C328.049 29.32 327.921 29.64 327.623 29.896C327.367 30.152 327.047 30.28 326.663 30.28H317.319C316.849 30.28 316.487 30.216 316.231 30.088C316.017 29.9173 315.825 29.6827 315.655 29.384C315.356 28.744 314.908 28.0827 314.311 27.4C313.756 26.6747 312.967 26.056 311.943 25.544C310.961 25.032 309.66 24.776 308.039 24.776C305.607 24.776 303.687 25.416 302.279 26.696C300.913 27.976 300.167 30.024 300.039 32.84C299.911 36.5093 299.911 40.2213 300.039 43.976C300.167 46.9627 300.956 49.1173 302.407 50.44C303.857 51.7627 305.777 52.424 308.167 52.424C309.788 52.424 311.217 52.1467 312.455 51.592C313.735 51.0373 314.737 50.184 315.463 49.032C316.188 47.8373 316.551 46.3227 316.551 44.488V43.272H310.535C310.065 43.272 309.66 43.1227 309.319 42.824C309.02 42.4827 308.871 42.0773 308.871 41.608V36.872C308.871 36.4027 309.02 36.0187 309.319 35.72C309.66 35.3787 310.065 35.208 310.535 35.208H326.663C327.132 35.208 327.516 35.3787 327.815 35.72C328.113 36.0187 328.263 36.4027 328.263 36.872V44.168C328.263 47.8373 327.431 50.9733 325.767 53.576C324.103 56.1787 321.735 58.184 318.663 59.592C315.633 60.9573 312.092 61.64 308.039 61.64ZM337.205 61C336.736 61 336.352 60.8507 336.053 60.552C335.754 60.2533 335.605 59.8693 335.605 59.4V17.8C335.605 17.3307 335.754 16.9467 336.053 16.648C336.352 16.3493 336.736 16.2 337.205 16.2H345.461C345.93 16.2 346.314 16.3493 346.613 16.648C346.912 16.9467 347.061 17.3307 347.061 17.8V33.224H362.869V17.8C362.869 17.3307 363.018 16.9467 363.317 16.648C363.616 16.3493 364 16.2 364.469 16.2H372.725C373.194 16.2 373.578 16.3493 373.877 16.648C374.176 16.9467 374.325 17.3307 374.325 17.8V59.4C374.325 59.8693 374.176 60.2533 373.877 60.552C373.578 60.8507 373.194 61 372.725 61H364.469C364 61 363.616 60.8507 363.317 60.552C363.018 60.2533 362.869 59.8693 362.869 59.4V43.464H347.061V59.4C347.061 59.8693 346.912 60.2533 346.613 60.552C346.314 60.8507 345.93 61 345.461 61H337.205Z" fill="white"/>
<rect x="241.5" y="67.5" width="133" height="7" rx="3.5" fill="url(#paint0_linear_1_20)" stroke="white"/>
<defs>
<linearGradient id="paint0_linear_1_20" x1="241" y1="71" x2="375" y2="71" gradientUnits="userSpaceOnUse">
<stop stop-color="#006636"/>
<stop offset="0.5" stop-color="#222222"/>
<stop offset="1" stop-color="#BD1334"/>
</linearGradient>
</defs>
</svg>
