<svg width="44" height="54" viewBox="0 0 44 54" fill="none" xmlns="http://www.w3.org/2000/svg">
<circle cx="13.5" cy="46.8205" r="2.5" transform="rotate(-90 13.5 46.8205)" fill="#F2F2F2"/>
<circle cx="13.5" cy="36.8205" r="2.5" transform="rotate(-90 13.5 36.8205)" fill="#F2F2F2"/>
<circle cx="13.5" cy="26.8205" r="2.5" transform="rotate(-90 13.5 26.8205)" fill="#F2F2F2"/>
<path d="M6.73205 18.6602C5.96225 18.6602 5.48113 17.8269 5.86603 17.1602L12.7942 5.16024C13.1791 4.49357 14.1414 4.49357 14.5263 5.16024L21.4545 17.1602C21.8394 17.8269 21.3583 18.6602 20.5885 18.6602L6.73205 18.6602Z" fill="#F2F2F2"/>
<circle cx="29.8205" cy="6.5" r="2.5" transform="rotate(90 29.8205 6.5)" fill="#F2F2F2"/>
<circle cx="29.8205" cy="16.5" r="2.5" transform="rotate(90 29.8205 16.5)" fill="#F2F2F2"/>
<circle cx="29.8205" cy="26.5" r="2.5" transform="rotate(90 29.8205 26.5)" fill="#F2F2F2"/>
<path d="M36.5884 34.6603C37.3582 34.6603 37.8394 35.4936 37.4545 36.1603L30.5263 48.1603C30.1414 48.8269 29.1791 48.8269 28.7942 48.1603L21.866 36.1603C21.4811 35.4936 21.9622 34.6603 22.732 34.6603L36.5884 34.6603Z" fill="#F2F2F2"/>
</svg>
