<svg width="456" height="512" viewBox="0 0 456 512" fill="none" xmlns="http://www.w3.org/2000/svg">
<g clip-path="url(#clip0_87_45)">
<path fill-rule="evenodd" clip-rule="evenodd" d="M48.42 140.13H410.41C427.77 140.13 440.23 149.91 438.49 168.3L407.76 485.4C406.53 498.76 398.77 511.82 382.46 511.82H76.34C62.71 511.09 52.6 502.07 51.25 487.68L20.79 168.99C19.05 150.61 30.54 140.13 48.42 140.13ZM24.49 38.15H160.96V28.1C160.96 12.16 171.16 0 187.98 0H269.26C286.56 0 296.91 11.77 296.91 28.01V38.15H435.57C436.14 38.15 436.68 38.22 437.25 38.28C447.48 39.21 455.4 47.3 455.94 57.5C455.97 58.29 456 58.89 456 59.67V102.43C456 108.42 451.27 113.32 445.38 113.62C444.84 113.62 444.29 113.65 443.75 113.65H11.22C5.3 113.65 0.45 109.05 0.03 103.27C0.03 102.55 0 101.8 0 101.04V61.54C0 50.61 4.21 40.83 16.82 38.52C19.35 38.07 21.91 38.15 24.49 38.15ZM108.27 246.53C107.76 236.36 116.48 227.7 127.8 227.22C139.11 226.73 148.74 234.62 149.25 244.79L157.95 405.41C158.46 415.59 149.73 424.25 138.42 424.73C127.1 425.21 117.48 417.33 116.96 407.16L108.27 246.53ZM309.97 244.79C310.48 234.62 320.11 226.73 331.42 227.22C342.74 227.7 351.46 236.36 350.95 246.53L342.29 407.16C341.77 417.33 332.15 425.21 320.83 424.73C309.52 424.25 300.79 415.59 301.3 405.41L309.97 244.79ZM207.03 245.66C207.03 235.43 216.26 227.13 227.61 227.13C238.95 227.13 248.19 235.43 248.19 245.66V406.29C248.19 416.52 238.95 424.82 227.61 424.82C216.26 424.82 207.03 416.52 207.03 406.29V245.66Z" fill="#BD1334"/>
</g>
<defs>
<clipPath id="clip0_87_45">
<rect width="456" height="511.82" fill="white"/>
</clipPath>
</defs>
</svg>
